HIERARCHY
ROOT Hips
{
    OFFSET 0.000000 0.000000 0.000000
    CHANNELS 6 Xposition Yposition Zposition Zrotation Xrotation Yrotation
    JOINT Spine
    {
        OFFSET -0.000000 7.236184 0.000000
        CHANNELS 3 Zrotation Xrotation Yrotation
        JOINT Spine1
        {
            OFFSET -0.000000 20.420147 0.000000
            CHANNELS 3 Zrotation Xrotation Yrotation
            JOINT Neck
            {
                OFFSET -0.000000 20.336288 1.848754
                CHANNELS 3 Zrotation Xrotation Yrotation
                JOINT Head
                {
                    OFFSET -0.000000 12.354461 -1.764923
                    CHANNELS 3 Zrotation Xrotation Yrotation
                    End Site
                    {
                        OFFSET -0.000000 22.061537 0.000000
                    }
                }
            }
            JOINT LeftShoulder
            {
                OFFSET 3.573296 18.396038 -0.314103
                CHANNELS 3 Zrotation Xrotation Yrotation
                JOINT LeftArm
                {
                    OFFSET 10.880760 0.000000 0.000000
                    CHANNELS 3 Zrotation Xrotation Yrotation
                    JOINT LeftForeArm
                    {
                        OFFSET 27.185530 0.000000 0.000000
                        CHANNELS 3 Zrotation Xrotation Yrotation
                        JOINT LeftHand
                        {
                            OFFSET 27.825975 0.000000 0.000000
                            CHANNELS 3 Zrotation Xrotation Yrotation
                            End Site
                            {
                                OFFSET 13.236923 0.000000 0.000000
                            }
                        }
                    }
                }
            }
            JOINT RightShoulder
            {
                OFFSET -3.474926 18.396038 -0.314103
                CHANNELS 3 Zrotation Xrotation Yrotation
                JOINT RightArm
                {
                    OFFSET -10.880760 0.000000 0.000000
                    CHANNELS 3 Zrotation Xrotation Yrotation
                    JOINT RightForeArm
                    {
                        OFFSET -27.185530 0.000000 0.000000
                        CHANNELS 3 Zrotation Xrotation Yrotation
                        JOINT RightHand
                        {
                            OFFSET -27.825975 0.000000 0.000000
                            CHANNELS 3 Zrotation Xrotation Yrotation
                            End Site
                            {
                                OFFSET -13.236923 0.000000 0.000000
                            }
                        }
                    }
                }
            }
        }
    }
    JOINT LeftUpLeg
    {
        OFFSET 8.824615 0.000000 0.000000
        CHANNELS 3 Zrotation Xrotation Yrotation
        JOINT LeftLeg
        {
            OFFSET -0.000000 -35.111282 0.000000
            CHANNELS 3 Zrotation Xrotation Yrotation
            JOINT LeftFoot
            {
                OFFSET -0.000000 -42.324711 0.000000
                CHANNELS 3 Zrotation Xrotation Yrotation
                JOINT LeftToeBase
                {
                    OFFSET -0.000000 -5.735999 13.236923
                    CHANNELS 3 Zrotation Xrotation Yrotation
                    End Site
                    {
                        OFFSET -0.000000 0.000000 3.529846
                    }
                }
            }
        }
    }
    JOINT RightUpLeg
    {
        OFFSET -8.824615 0.000000 0.000000
        CHANNELS 3 Zrotation Xrotation Yrotation
        JOINT RightLeg
        {
            OFFSET -0.000000 -35.111282 0.000000
            CHANNELS 3 Zrotation Xrotation Yrotation
            JOINT RightFoot
            {
                OFFSET -0.000000 -42.324711 0.000000
                CHANNELS 3 Zrotation Xrotation Yrotation
                JOINT RightToeBase
                {
                    OFFSET -0.000000 -5.735999 13.236923
                    CHANNELS 3 Zrotation Xrotation Yrotation
                    End Site
                    {
                        OFFSET -0.000000 0.000000 3.529846
                    }
                }
            }
        }
    }
}
MOTION
Frames:    11
Frame Time:    0.008333
-1.499595    81.910988    94.300308    0.997013    -6.370874    -176.199005    0.669493    -16.739819    0.873833    -4.313560    7.216316    1.047533    6.380067    6.570666    -4.548207    5.204727    3.793205    -4.736063    1.987606    17.858360    -3.290293    -45.617237    45.609596    -38.054081    -3.052828    -3.041736    -16.291050    18.078691    -2.900670    3.633975    -1.674025    6.485182    -2.422786    41.373226    -24.899715    25.396328    -44.812344    -40.315639    82.437927    -16.356592    -0.002491    -5.413509    4.838869    -3.405192    -0.733906    -2.502609    6.419062    0.444220    -0.119260    -10.377856    -9.491680    -0.955416    1.810974    1.055648    -2.020962    -0.106433    -0.941962    12.211124    8.400396    -12.662873    0.000000    0.000000    0.000000    0.000000    0.000000    0.000000    
-1.498204    81.912491    94.300987    1.006762    -6.350946    -176.243637    0.670811    -16.745380    0.862555    -4.276263    7.224480    1.033955    6.356688    6.587878    -4.503697    5.121290    3.861403    -4.698795    1.976568    17.871515    -3.349472    -45.548168    45.647766    -38.076527    -3.058231    -3.023044    -16.307652    18.021519    -2.886271    3.626398    -1.640859    6.472467    -2.347148    41.524193    -24.697464    25.755974    -45.075703    -40.455723    82.130577    -16.297764    -0.136510    -5.416524    4.852130    -3.376124    -0.712917    -2.502499    6.415241    0.465890    -0.119209    -10.378745    -9.490700    -0.955800    1.807432    1.056078    -2.006576    -0.097061    -0.924670    12.203182    8.408718    -12.648714    0.000000    0.000000    0.000000    0.000000    0.000000    0.000000    
-1.496780    81.913963    94.301735    1.016406    -6.331110    -176.288437    0.671906    -16.750811    0.851389    -4.238846    7.232312    1.020527    6.332812    6.605345    -4.459694    5.038557    3.929439    -4.661816    1.965313    17.884645    -3.408746    -45.478870    45.685863    -38.098881    -3.063458    -3.004387    -16.324865    17.964275    -2.871854    3.618888    -1.607124    6.461132    -2.271427    41.674679    -24.496094    26.115459    -45.338432    -40.593842    81.824120    -16.240734    -0.269927    -5.420174    4.865242    -3.347138    -0.692092    -2.502369    6.411397    0.488048    -0.119266    -10.379645    -9.489922    -0.956180    1.803736    1.056505    -1.992408    -0.087830    -0.907221    12.195435    8.417098    -12.634254    0.000000    0.000000    0.000000    0.000000    0.000000    0.000000    
-1.495314    81.915375    94.302612    1.025734    -6.311717    -176.333374    0.672546    -16.756834    0.840450    -4.201433    7.240415    1.007410    6.307892    6.622814    -4.416800    4.957842    3.997328    -4.625585    1.953900    17.897472    -3.467909    -45.409687    45.723644    -38.121243    -3.068358    -2.985777    -16.342596    17.907406    -2.857515    3.611012    -1.572272    6.452511    -2.195864    41.826340    -24.298218    26.476118    -45.597988    -40.729183    81.521683    -16.185629    -0.401666    -5.424375    4.877963    -3.318565    -0.671925    -2.502242    6.407408    0.511065    -0.119430    -10.380477    -9.489220    -0.956576    1.800080    1.056949    -1.978677    -0.079178    -0.889829    12.187864    8.425713    -12.619601    0.000000    0.000000    0.000000    0.000000    0.000000    0.000000    
-1.493762    81.916687    94.303619    1.034732    -6.292593    -176.378357    0.672609    -16.762970    0.829996    -4.163994    7.248328    0.994784    6.281675    6.640477    -4.375752    4.880042    4.064836    -4.590736    1.942400    17.910179    -3.527144    -45.341034    45.760471    -38.143349    -3.072924    -2.967166    -16.361168    17.851011    -2.843179    3.602742    -1.535647    6.436404    -2.115786    41.972614    -24.100328    26.822617    -45.853092    -40.863274    81.226234    -16.132401    -0.532583    -5.431064    4.890314    -3.290268    -0.652554    -2.502115    6.403295    0.535208    -0.119893    -10.381267    -9.488859    -0.957006    1.796868    1.057431    -1.965432    -0.070897    -0.872387    12.180586    8.434442    -12.604765    0.000000    0.000000    0.000000    0.000000    0.000000    0.000000    
-1.492142    81.917900    94.304893    1.043061    -6.274208    -176.423721    0.671698    -16.769732    0.819996    -4.126430    7.256045    0.982716    6.253550    6.658271    -4.336774    4.805693    4.132447    -4.557422    1.930821    17.922573    -3.586527    -45.272984    45.796745    -38.165276    -3.076837    -2.948632    -16.380598    17.794964    -2.828949    3.593690    -1.496890    6.423262    -2.034774    42.122383    -23.908390    27.170496    -46.102036    -40.994514    80.939117    -16.080626    -0.661457    -5.438991    4.901847    -3.262698    -0.634295    -2.501953    6.398938    0.561203    -0.120648    -10.381907    -9.488921    -0.957421    1.793739    1.057894    -1.953161    -0.063691    -0.854802    12.173812    8.443616    -12.589490    0.000000    0.000000    0.000000    0.000000    0.000000    0.000000    
-1.490404    81.918983    94.306396    1.050831    -6.256298    -176.469406    0.669847    -16.776937    0.810547    -4.088736    7.263725    0.971406    6.223365    6.676140    -4.300373    4.735359    4.199945    -4.526117    1.918971    17.934555    -3.645968    -45.205612    45.832256    -38.186985    -3.080073    -2.930238    -16.400902    17.739637    -2.814903    3.583766    -1.455845    6.423219    -1.957113    42.283165    -23.729200    27.532532    -46.341465    -41.120670    80.663834    -16.030369    -0.785957    -5.447164    4.912735    -3.235523    -0.617367    -2.501767    6.394244    0.589253    -0.121677    -10.382458    -9.489469    -0.957853    1.790745    1.058377    -1.941620    -0.057253    -0.837236    12.167348    8.453145    -12.574003    0.000000    0.000000    0.000000    0.000000    0.000000    0.000000    
-1.488543    81.919922    94.308197    1.057878    -6.239167    -176.515442    0.666762    -16.784952    0.801703    -4.050737    7.271338    0.960820    6.190720    6.693850    -4.266858    4.669443    4.267859    -4.497054    1.906975    17.946201    -3.705342    -45.138817    45.867176    -38.208862    -3.082497    -2.912251    -16.422304    17.684647    -2.801286    3.572944    -1.412038    6.422355    -1.876097    42.446697    -23.555901    27.890310    -46.572220    -41.244667    80.400917    -15.981242    -0.908342    -5.457854    4.922853    -3.209074    -0.602047    -2.501701    6.389196    0.619643    -0.123026    -10.382847    -9.490434    -0.958336    1.788058    1.058916    -1.931146    -0.051915    -0.819429    12.161525    8.463039    -12.557921    0.000000    0.000000    0.000000    0.000000    0.000000    0.000000    
-1.486511    81.920731    94.310265    1.064368    -6.222472    -176.561813    0.662581    -16.793373    0.793512    -4.012486    7.278833    0.951129    6.155780    6.711576    -4.236505    4.607894    4.335879    -4.470583    1.894742    17.957132    -3.764794    -45.073124    45.901474    -38.230289    -3.084204    -2.894708    -16.444729    17.630474    -2.788165    3.561148    -1.365128    6.426035    -1.793762    42.617153    -23.391848    28.250380    -46.792763    -41.365810    80.152176    -15.933137    -1.027660    -5.470326    4.932406    -3.182950    -0.588482    -2.501689    6.383689    0.652540    -0.124683    -10.383098    -9.491875    -0.958788    1.785567    1.059420    -1.921368    -0.047389    -0.801556    12.156050    8.473412    -12.541736    0.000000    0.000000    0.000000    0.000000    0.000000    0.000000    
-1.484326    81.921402    94.312630    1.070111    -6.206526    -176.608231    0.657054    -16.802502    0.786108    -3.974052    7.286261    0.942273    6.117936    6.729078    -4.209792    4.552312    4.403944    -4.446953    1.882285    17.967468    -3.823648    -45.008183    45.935371    -38.252003    -3.085226    -2.878101    -16.468067    17.577427    -2.775973    3.548565    -1.315255    6.431387    -1.708935    42.792709    -23.236862    28.607023    -47.001331    -41.484196    79.920250    -15.886155    -1.143541    -5.485594    4.941038    -3.157587    -0.576807    -2.501610    6.377707    0.688012    -0.126712    -10.383051    -9.494023    -0.959258    1.783376    1.059944    -1.912667    -0.043861    -0.783570    12.151262    8.484071    -12.525134    0.000000    0.000000    0.000000    0.000000    0.000000    0.000000    
-1.481916    81.921944    94.315300    1.075355    -6.190886    -176.655182    0.650284    -16.812225    0.779319    -3.935042    7.293753    0.934256    6.077582    6.746515    -4.186329    4.500565    4.472811    -4.426092    1.869267    17.977020    -3.882455    -44.943268    45.969639    -38.273987    -3.085386    -2.862438    -16.492632    17.524693    -2.764760    3.535114    -1.261464    6.440962    -1.621230    42.977551    -23.090002    28.967674    -47.200596    -41.601460    79.702423    -15.839718    -1.257426    -5.503528    4.949277    -3.132320    -0.567153    -2.501730    6.371132    0.726605    -0.129083    -10.382820    -9.496731    -0.959755    1.781563    1.060496    -1.904674    -0.041024    -0.765132    12.147049    8.495081    -12.507941    0.000000    0.000000    0.000000    0.000000    0.000000    0.000000    
